<svg width="56" height="56" viewBox="0 0 56 56" fill="none" xmlns="http://www.w3.org/2000/svg">
<g clip-path="url(#clip0_26_217)">
<mask id="mask0_26_217" style="mask-type:luminance" maskUnits="userSpaceOnUse" x="0" y="0" width="56" height="56">
<path d="M56 0H0V56H56V0Z" fill="white"/>
</mask>
<g mask="url(#mask0_26_217)">
<path d="M28.0228 42C23.7761 41.9767 19.6227 41.1367 15.6793 39.5267C14.7927 39.1533 14.3494 38.15 14.7227 37.24C15.096 36.33 16.0994 35.91 17.0094 36.2833C20.5327 37.73 24.2428 38.4767 28.0228 38.4767C31.7794 38.4767 35.4894 37.7067 39.0128 36.2833C39.9228 35.91 40.9261 36.3533 41.2994 37.24C41.6728 38.1267 41.2294 39.1533 40.3428 39.5267C36.3994 41.1367 32.2694 41.9767 28.0228 42Z" fill="white"/>
<path d="M35.7925 32.4797C32.8991 32.4797 30.5425 29.8664 30.5425 26.6464C30.5425 23.4264 32.8991 20.8131 35.7925 20.8131C38.6858 20.8131 41.0425 23.4264 41.0425 26.6464C41.0425 29.8664 38.6858 32.4797 35.7925 32.4797ZM35.7925 24.3131C34.8358 24.3131 34.0425 25.3864 34.0425 26.6464C34.0425 27.9064 34.8358 28.9797 35.7925 28.9797C36.7491 28.9797 37.5425 27.9064 37.5425 26.6464C37.5425 25.3864 36.7491 24.3131 35.7925 24.3131Z" fill="white"/>
<path d="M20.2524 32.4797C17.3591 32.4797 15.0024 29.8664 15.0024 26.6464C15.0024 23.4264 17.3591 20.8131 20.2524 20.8131C23.1458 20.8131 25.5025 23.4264 25.5025 26.6464C25.5025 29.8664 23.1458 32.4797 20.2524 32.4797ZM20.2524 24.3131C19.2958 24.3131 18.5024 25.3864 18.5024 26.6464C18.5024 27.9064 19.2958 28.9797 20.2524 28.9797C21.2091 28.9797 22.0024 27.9064 22.0024 26.6464C22.0024 25.3864 21.2091 24.3131 20.2524 24.3131Z" fill="white"/>
<path d="M15.4696 47.8328C15.2829 47.8328 15.1196 47.8095 14.9329 47.7395C11.0829 46.5262 7.46625 44.7762 4.15292 42.5828C3.73292 42.3028 3.47625 41.8828 3.38292 41.3928C1.81959 31.1028 4.10625 20.6029 9.77625 11.8762C9.96291 11.5962 10.2196 11.3629 10.5229 11.2229C13.7429 9.79955 17.1496 8.77288 20.6729 8.18954C21.5362 8.04954 22.3762 8.56288 22.6329 9.40288C22.7496 9.75288 22.8429 10.1029 22.9362 10.4529C24.5463 10.2662 26.1796 10.1495 27.9529 10.1262C29.6329 10.1262 31.3129 10.2429 33.0163 10.4529C33.1096 10.1029 33.2029 9.77621 33.2963 9.44954C33.5296 8.58621 34.4163 8.04954 35.2563 8.21288C38.7563 8.79621 42.1629 9.82288 45.4063 11.2462C45.7096 11.3862 45.9896 11.6195 46.1763 11.8995C51.8696 20.6495 54.1329 31.1495 52.5696 41.4162C52.4996 41.9062 52.2196 42.3495 51.7996 42.6062C48.5096 44.7995 44.8929 46.5262 41.0196 47.7628C40.2729 47.9962 39.4796 47.7162 39.0363 47.0862C37.4729 44.7762 36.1196 42.3028 34.9529 39.6895C34.5563 38.8028 34.9529 37.7762 35.8396 37.3795C36.7263 36.9828 37.7529 37.3795 38.1496 38.2662C39.0363 40.2728 40.0396 42.1862 41.1829 44.0062C44.0063 43.0028 46.6896 41.6962 49.1629 40.1095C50.3529 31.1028 48.3229 21.9562 43.4696 14.2329C41.1363 13.2295 38.6863 12.4595 36.2129 11.9462C36.1429 12.2262 36.0729 12.5062 36.0263 12.8095C35.8396 13.7195 34.9529 14.3262 34.0196 14.1629C31.9663 13.8129 29.9363 13.6495 27.9296 13.6495C25.7596 13.6729 23.7763 13.8362 21.8396 14.1629C20.9296 14.3029 20.0429 13.7195 19.8562 12.8095C19.7862 12.5295 19.7396 12.2262 19.6696 11.9462C17.1729 12.4595 14.7229 13.2295 12.3896 14.2329C7.51292 21.9329 5.50625 31.0795 6.69625 40.1095C9.19292 41.6962 11.8762 43.0028 14.6996 44.0062C15.8896 42.1395 16.9162 40.2262 17.7329 38.2895C18.1062 37.4028 19.1329 36.9828 20.0429 37.3795C20.9296 37.7528 21.3496 38.7795 20.9529 39.6895C19.8796 42.2095 18.5029 44.6828 16.8696 47.0862C16.5429 47.5762 15.9829 47.8562 15.4229 47.8562L15.4696 47.8328Z" fill="white"/>
</g>
</g>
<defs>
<clipPath id="clip0_26_217">
<rect width="56" height="56" fill="white"/>
</clipPath>
</defs>
</svg>
