<svg width="56" height="56" viewBox="0 0 56 56" fill="none" xmlns="http://www.w3.org/2000/svg">
<path d="M46.977 46.3116L33.2833 24.7909L46.7954 9.92688C47.101 9.5824 47.2585 9.13135 47.2338 8.67152C47.2091 8.21169 47.0041 7.78014 46.6633 7.47043C46.3225 7.16073 45.8734 6.99783 45.4133 7.01705C44.9532 7.03628 44.5192 7.23607 44.2054 7.57313L31.3342 21.7306L22.477 7.81156C22.3191 7.56296 22.1009 7.35825 21.8428 7.21638C21.5847 7.07452 21.295 7.00009 21.0004 7H10.5004C10.1867 6.99985 9.87862 7.08406 9.60857 7.24382C9.33851 7.40358 9.11638 7.63301 8.96542 7.90808C8.81447 8.18315 8.74024 8.49375 8.75053 8.80736C8.76081 9.12096 8.85522 9.42603 9.02388 9.69062L22.7176 31.2091L9.20544 46.0841C9.04765 46.2536 8.92507 46.4527 8.8448 46.6699C8.76454 46.8871 8.72819 47.1181 8.73785 47.3495C8.74752 47.5809 8.80302 47.8081 8.90112 48.0178C8.99922 48.2276 9.13799 48.4158 9.30937 48.5716C9.48075 48.7273 9.68134 48.8475 9.89951 48.9251C10.1177 49.0028 10.3491 49.0364 10.5803 49.0239C10.8116 49.0115 11.0381 48.9533 11.2466 48.8527C11.4552 48.7521 11.6418 48.611 11.7954 48.4378L24.6667 34.2803L33.5239 48.1994C33.6831 48.4459 33.9018 48.6485 34.1598 48.7884C34.4179 48.9283 34.7069 49.0011 35.0004 49H45.5004C45.8139 48.9999 46.1215 48.9156 46.3913 48.756C46.661 48.5963 46.8829 48.3672 47.0338 48.0924C47.1847 47.8177 47.259 47.5075 47.249 47.1942C47.239 46.881 47.1451 46.5761 46.977 46.3116ZM35.9608 45.5L13.6876 10.5H20.0314L42.3133 45.5H35.9608Z" fill="#F1F1F1"/>
</svg>
