<svg width="56" height="56" viewBox="0 0 56 56" fill="none" xmlns="http://www.w3.org/2000/svg">
<mask id="mask0_26_183" style="mask-type:luminance" maskUnits="userSpaceOnUse" x="0" y="0" width="56" height="56">
<path d="M56 0H0V56H56V0Z" fill="white"/>
</mask>
<g mask="url(#mask0_26_183)">
<path d="M27.9998 48.8602C26.4832 48.8602 13.0432 48.8369 9.26317 47.6469C6.67317 46.8302 4.61984 44.4969 3.94317 41.5336C2.93984 37.1236 2.9165 28.3736 2.9165 28.0002C2.9165 27.6269 2.9165 18.8535 3.94317 14.4668C4.61984 11.5268 6.64984 9.17014 9.26317 8.35347C13.0432 7.16347 26.4832 7.14014 27.9998 7.14014C29.5165 7.14014 42.9565 7.16347 46.7365 8.35347C49.3265 9.17014 51.3798 11.5035 52.0565 14.4668C53.0598 18.8768 53.0832 27.6269 53.0832 28.0002C53.0832 28.3736 53.0832 37.1469 52.0565 41.5336C51.3798 44.4736 49.3498 46.8302 46.7365 47.6469C42.9798 48.8369 29.5165 48.8602 27.9998 48.8602ZM27.9998 10.6401C24.0098 10.6401 13.0665 10.8268 10.2898 11.7135C8.8665 12.1568 7.7465 13.5101 7.34984 15.2601C6.4165 19.2735 6.4165 27.9302 6.4165 28.0002C6.4165 28.0702 6.4165 36.7269 7.34984 40.7402C7.7465 42.4669 8.91317 43.8436 10.2898 44.2869C13.0665 45.1502 24.0098 45.3602 27.9998 45.3602C31.9898 45.3602 42.9332 45.1736 45.6865 44.2869C47.1098 43.8436 48.2298 42.4902 48.6265 40.7402C49.5598 36.7269 49.5598 28.0702 49.5598 28.0002C49.5598 27.9302 49.5598 19.2735 48.6265 15.2601C48.2298 13.5335 47.0632 12.1568 45.6865 11.7135C42.9098 10.8501 31.9665 10.6401 27.9765 10.6401H27.9998Z" fill="#F1F1F1"/>
<path d="M23.3338 36.7498C23.0305 36.7498 22.7272 36.6798 22.4472 36.5165C21.9105 36.2131 21.5605 35.6298 21.5605 34.9998V20.9999C21.5605 20.3699 21.8872 19.7866 22.4472 19.4832C22.9839 19.1799 23.6605 19.1799 24.1971 19.4832L36.3305 26.4831C36.8671 26.7865 37.2171 27.3698 37.2171 27.9998C37.2171 28.6298 36.8905 29.2131 36.3305 29.5165L24.1971 36.5165C23.9171 36.6798 23.6138 36.7498 23.3105 36.7498H23.3338ZM25.0838 24.0331V31.9665L31.9671 27.9998L25.0838 24.0331Z" fill="#F1F1F1"/>
</g>
</svg>
