<?xml version="1.0" encoding="UTF-8" standalone="no"?>
<svg
   width="40"
   height="40"
   viewBox="0 0 40 40"
   fill="none"
   version="1.1"
   id="svg2"
   sodipodi:docname="favicon.svg"
   inkscape:version="1.4.2 (ebf0e940d0, 2025-05-08)"
   xmlns:inkscape="http://www.inkscape.org/namespaces/inkscape"
   xmlns:sodipodi="http://sodipodi.sourceforge.net/DTD/sodipodi-0.dtd"
   xmlns="http://www.w3.org/2000/svg"
   xmlns:svg="http://www.w3.org/2000/svg">
  <defs
     id="defs2" />
  <sodipodi:namedview
     id="namedview2"
     pagecolor="#ffffff"
     bordercolor="#000000"
     borderopacity="0.25"
     inkscape:showpageshadow="2"
     inkscape:pageopacity="0.0"
     inkscape:pagecheckerboard="0"
     inkscape:deskcolor="#d1d1d1"
     inkscape:zoom="10.279565"
     inkscape:cx="8.6093139"
     inkscape:cy="32.832129"
     inkscape:window-width="2560"
     inkscape:window-height="1371"
     inkscape:window-x="0"
     inkscape:window-y="0"
     inkscape:window-maximized="1"
     inkscape:current-layer="svg2" />
  <path
     d="M 10.081931,7.5554744 C 9.8834005,7.3688609 9.6021581,7.322202 9.4863459,7.322202 9.1774525,7.2475551 8.6627984,7.5399239 8.4440804,7.6954437 7.8815882,8.2708495 6.5779231,9.5522912 5.8632263,10.074819 5.148528,10.597347 5.3338199,11.350042 5.515803,11.661075 c 1.98527,2.581517 5.591906,7.032862 6.650667,8.304518 0.451229,0.541961 0.678377,0.827774 0.397054,1.539596 -1.952186,2.503758 -6.0054511,7.688607 -6.6010344,8.397792 -0.5955821,0.709113 -0.4466866,1.415149 -0.2977913,1.679574 0.7444764,0.730867 2.3922526,2.314045 3.0275385,2.799239 0.6352932,0.485194 1.3235152,0.202164 1.5882182,0 C 14.532258,30.447286 23.164883,22.428918 23.68106,21.831728 24.197238,21.234539 23.962332,20.618744 23.78031,20.38545 19.296884,16.18659 10.280455,7.7420952 10.081931,7.5554744 Z"
     fill="currentColor"
     id="path1"
     style="fill:#008bf9;fill-opacity:1;stroke-width:0.732478" />
  <path
     d="M 34.105694,8.4651394 31.177391,5.6658719 C 30.423012,5.1433423 29.87043,5.3859454 29.688409,5.5725629 27.355758,7.7342211 22.52162,12.216161 21.846641,12.850664 c -0.675052,0.634472 -0.545989,1.352961 -0.397076,1.632914 2.465009,2.41044 7.603565,7.362067 8.437419,7.884617 0.83378,0.522477 1.373104,0.217693 1.538571,0 0.678275,-0.606565 2.1937,-1.968828 2.828978,-2.566018 0.635352,-0.59719 0.363969,-1.275245 0.148913,-1.539596 -1.091906,-1.197456 -3.305455,-3.685685 -3.424556,-4.058956 -0.119175,-0.373198 0.04959,-0.808657 0.148839,-0.979764 l 2.977965,-3.3590872 c 0.397003,-0.6345021 0.165393,-1.1974631 0,-1.3996344 z"
     fill="currentColor"
     id="path2"
     style="fill:#008bf9;fill-opacity:1;stroke-width:0.732478" />
</svg>
