<svg width="40" height="40" viewBox="0 0 40 40" fill="none" xmlns="http://www.w3.org/2000/svg">
<path d="M6.45959 3.01036C6.18855 2.75559 5.80459 2.69189 5.64648 2.69189C5.22477 2.58998 4.52215 2.98913 4.22355 3.20145C3.45562 3.98701 1.67582 5.73647 0.700096 6.44984C-0.27563 7.16321 -0.0226643 8.19081 0.225784 8.61544C2.93613 12.1398 7.86001 18.2169 9.30546 19.953C9.92149 20.6929 10.2316 21.0831 9.84753 22.0549C7.18235 25.4731 1.64872 32.5516 0.835613 33.5198C0.0225077 34.4879 0.225784 35.4518 0.42906 35.8128C1.44544 36.8106 3.69503 38.972 4.56234 39.6344C5.42966 40.2968 6.36924 39.9104 6.73062 39.6344C12.5353 34.2629 24.3208 23.316 25.0255 22.5007C25.7302 21.6854 25.4095 20.8447 25.161 20.5262C19.0401 14.7938 6.73062 3.26514 6.45959 3.01036Z" fill="currentColor"/>
<path d="M39.2575 4.25226L35.2597 0.430622C34.2298 -0.28275 33.4754 0.0484585 33.2269 0.303234C30.0423 3.25439 23.4426 9.37326 22.5211 10.2395C21.5995 11.1057 21.7757 12.0866 21.979 12.4688C25.3443 15.7596 32.3596 22.5197 33.498 23.2331C34.6363 23.9464 35.3726 23.5303 35.5985 23.2331C36.5245 22.405 38.5934 20.5452 39.4607 19.7299C40.3281 18.9146 39.9576 17.9889 39.664 17.628C38.1733 15.9932 35.1513 12.5962 34.9887 12.0866C34.826 11.5771 35.0564 10.9826 35.1919 10.749L39.2575 6.16308C39.7995 5.29684 39.4833 4.52827 39.2575 4.25226Z" fill="currentColor"/>
</svg>
